<?xml version="1.0" encoding="UTF-8"?>
<svg width="1024px" height="1024px" viewBox="0 0 1024 1024" version="1.1" xmlns="http://www.w3.org/2000/svg" xmlns:xlink="http://www.w3.org/1999/xlink">
    <title>AppIconfavicon_icon</title>
    <defs>
        <linearGradient x1="50%" y1="0%" x2="50%" y2="100%" id="linearGradient-1">
            <stop stop-color="#AF52DE" offset="0%"></stop>
            <stop stop-color="#5E5CE6" offset="100%"></stop>
        </linearGradient>
    </defs>
    <g id="AppIcon" stroke="none" stroke-width="1" fill="none" fill-rule="evenodd">
        <rect id="Background" fill="url(#linearGradient-1)" x="0" y="0" width="1024" height="1024"></rect>
        <path d="M505.73417,610.805191 C507.515747,612.586769 509.494127,613.487915 511.669309,613.508631 C513.844491,613.529348 515.843587,612.628201 517.666597,610.805191 L537.181086,591.290701 L543.085152,597.194767 C544.825297,598.934912 546.865825,599.794627 549.206735,599.773911 C551.547646,599.753195 553.588173,598.872764 555.328319,597.132618 C557.109897,595.351041 558.000685,593.300155 558.000685,590.979961 C558.000685,588.659767 557.130613,586.629597 555.390467,584.889451 L549.486402,578.985386 L558.18713,570.284658 L564.091195,576.188723 C565.831341,577.928869 567.86151,578.798942 570.181705,578.798942 C572.501899,578.798942 574.532069,577.928869 576.272214,576.188723 C578.01236,574.448578 578.892791,572.40805 578.913507,570.06714 C578.934223,567.72623 578.074508,565.685702 576.334362,563.945556 L570.430297,558.041491 L579.131025,549.340763 L585.03509,555.244828 C586.775236,556.984974 588.815764,557.844688 591.156674,557.823972 C593.497584,557.803256 595.538112,556.922826 597.278257,555.18268 C599.018403,553.442534 599.888476,551.412365 599.888476,549.09217 C599.888476,546.771976 599.018403,544.741806 597.278257,543.001661 L591.374192,537.097595 L610.764386,517.707402 C612.545963,515.925824 613.436752,513.937086 613.436752,511.741188 C613.436752,509.54529 612.545963,507.556552 610.764386,505.774975 L591.312044,486.322633 L597.153961,480.480716 C598.935539,478.699138 599.81597,476.637894 599.795254,474.296984 C599.774538,471.956074 598.894107,469.915546 597.153961,468.1754 C595.413816,466.435255 593.383646,465.565182 591.063452,465.565182 C588.743258,465.565182 586.692372,466.455971 584.910794,468.237548 L579.068877,474.079466 L570.368149,465.378738 L576.210066,459.53682 C577.991644,457.755243 578.882433,455.704357 578.882433,453.384163 C578.882433,451.063969 577.991644,449.013083 576.210066,447.231505 C574.469921,445.49136 572.439751,444.621287 570.119557,444.621287 C567.799362,444.621287 565.748477,445.512076 563.966899,447.293653 L558.124982,453.135571 L549.424254,444.434843 L555.266171,438.592925 C557.047749,436.811348 557.938537,434.760462 557.938537,432.440268 C557.938537,430.120073 557.047749,428.069188 555.266171,426.28761 C553.526025,424.547464 551.495855,423.677392 549.175661,423.677392 C546.855467,423.677392 544.804581,424.56818 543.023004,426.349758 L537.181086,432.191675 L517.728745,412.739334 C515.905735,410.916324 513.896281,410.004819 511.700383,410.004819 C509.504485,410.004819 507.515747,410.895608 505.73417,412.677185 L486.343976,432.067379 L480.502058,426.225462 C478.720481,424.443884 476.659237,423.563453 474.318327,423.584169 C471.977417,423.604886 469.936889,424.485316 468.196743,426.225462 C466.456598,427.965607 465.576167,430.006135 465.555451,432.347046 C465.534735,434.687956 466.415166,436.7492 468.196743,438.530777 L474.038661,444.372695 L465.400081,453.011274 L459.558163,447.169357 C457.776586,445.387779 455.715342,444.507349 453.374432,444.528065 C451.033521,444.548781 448.992994,445.429211 447.252848,447.169357 C445.512702,448.909503 444.632272,450.950031 444.611556,453.290941 C444.59084,455.631851 445.47127,457.693095 447.252848,459.474672 L453.094765,465.31659 L444.394037,474.017318 L438.55212,468.1754 C436.770542,466.393823 434.719657,465.503034 432.399462,465.503034 C430.079268,465.503034 428.049098,466.373107 426.308953,468.113252 C424.568807,469.853398 423.688376,471.893926 423.66766,474.234836 C423.646944,476.575746 424.527375,478.63699 426.308953,480.418568 L432.15087,486.260485 L412.63638,505.774975 C410.813371,507.597984 409.912224,509.59708 409.93294,511.772262 C409.953656,513.947444 410.875519,515.94654 412.698528,517.76955 L444.394037,549.465059 L447.419074,552.490949 L112.852074,889.932949 L375.5,375.5 L512,321 L703,113.411949 C750.782078,135.628877 792.139819,164.044136 827.073223,198.657726 C862.006627,233.271316 890.484244,274.052074 912.506074,321 L703,512 L647.069885,646.883352 L134.205074,909.971949 L471.326074,576.396949 L505.73417,610.805191 Z M513.813417,440.146627 L583.357093,509.690302 C584.72435,511.05756 584.703634,512.445533 583.294945,513.854222 L513.813417,583.33575 C512.404728,584.744439 511.016754,584.765155 509.649497,583.397898 L487.070074,560.818949 L498.316074,549.691949 L507.287871,558.662971 C510.31241,561.68751 513.357665,561.666794 516.423635,558.600823 L558.684314,516.340144 C561.708853,513.315606 561.708853,510.291067 558.684314,507.266528 L516.299339,464.881553 C513.2748,461.857015 510.250262,461.857015 507.225723,464.881553 L464.965044,507.142232 C461.899073,510.208203 461.878357,513.253458 464.902896,516.277996 L474.152074,525.527949 L463.014074,536.761949 L440.105821,513.854222 C438.738564,512.486965 438.75928,511.098992 440.16797,509.690302 L509.649497,440.208775 C511.058186,438.800085 512.44616,438.779369 513.813417,440.146627 Z" id="Logo" fill="#FFFFFF"></path>
    </g>
</svg>