<?xml version="1.0" encoding="UTF-8"?>
<svg width="1280px" height="1280px" viewBox="0 0 1280 1280" version="1.1" xmlns="http://www.w3.org/2000/svg" xmlns:xlink="http://www.w3.org/1999/xlink">
    <title>icon</title>
    <defs>
        <linearGradient x1="50%" y1="0%" x2="50%" y2="100%" id="linearGradient-1">
            <stop stop-color="#AF52DE" offset="0%"></stop>
            <stop stop-color="#5E5CE6" offset="100%"></stop>
        </linearGradient>
        <path d="M633.73417,738.805191 C635.515747,740.586769 637.494127,741.487915 639.669309,741.508631 C641.844491,741.529348 643.843587,740.628201 645.666597,738.805191 L665.181086,719.290701 L671.085152,725.194767 C672.825297,726.934912 674.865825,727.794627 677.206735,727.773911 C679.547646,727.753195 681.588173,726.872764 683.328319,725.132618 C685.109897,723.351041 686.000685,721.300155 686.000685,718.979961 C686.000685,716.659767 685.130613,714.629597 683.390467,712.889451 L677.486402,706.985386 L686.18713,698.284658 L692.091195,704.188723 C693.831341,705.928869 695.86151,706.798942 698.181705,706.798942 C700.501899,706.798942 702.532069,705.928869 704.272214,704.188723 C706.01236,702.448578 706.892791,700.40805 706.913507,698.06714 C706.934223,695.72623 706.074508,693.685702 704.334362,691.945556 L698.430297,686.041491 L707.131025,677.340763 L713.03509,683.244828 C714.775236,684.984974 716.815764,685.844688 719.156674,685.823972 C721.497584,685.803256 723.538112,684.922826 725.278257,683.18268 C727.018403,681.442534 727.888476,679.412365 727.888476,677.09217 C727.888476,674.771976 727.018403,672.741806 725.278257,671.001661 L719.374192,665.097595 L738.764386,645.707402 C740.545963,643.925824 741.436752,641.937086 741.436752,639.741188 C741.436752,637.54529 740.545963,635.556552 738.764386,633.774975 L719.312044,614.322633 L725.153961,608.480716 C726.935539,606.699138 727.81597,604.637894 727.795254,602.296984 C727.774538,599.956074 726.894107,597.915546 725.153961,596.1754 C723.413816,594.435255 721.383646,593.565182 719.063452,593.565182 C716.743258,593.565182 714.692372,594.455971 712.910794,596.237548 L707.068877,602.079466 L698.368149,593.378738 L704.210066,587.53682 C705.991644,585.755243 706.882433,583.704357 706.882433,581.384163 C706.882433,579.063969 705.991644,577.013083 704.210066,575.231505 C702.469921,573.49136 700.439751,572.621287 698.119557,572.621287 C695.799362,572.621287 693.748477,573.512076 691.966899,575.293653 L686.124982,581.135571 L677.424254,572.434843 L683.266171,566.592925 C685.047749,564.811348 685.938537,562.760462 685.938537,560.440268 C685.938537,558.120073 685.047749,556.069188 683.266171,554.28761 C681.526025,552.547464 679.495855,551.677392 677.175661,551.677392 C674.855467,551.677392 672.804581,552.56818 671.023004,554.349758 L665.181086,560.191675 L645.728745,540.739334 C643.905735,538.916324 641.896281,538.004819 639.700383,538.004819 C637.504485,538.004819 635.515747,538.895608 633.73417,540.677185 L614.343976,560.067379 L608.502058,554.225462 C606.720481,552.443884 604.659237,551.563453 602.318327,551.584169 C599.977417,551.604886 597.936889,552.485316 596.196743,554.225462 C594.456598,555.965607 593.576167,558.006135 593.555451,560.347046 C593.534735,562.687956 594.415166,564.7492 596.196743,566.530777 L602.038661,572.372695 L593.400081,581.011274 L587.558163,575.169357 C585.776586,573.387779 583.715342,572.507349 581.374432,572.528065 C579.033521,572.548781 576.992994,573.429211 575.252848,575.169357 C573.512702,576.909503 572.632272,578.950031 572.611556,581.290941 C572.59084,583.631851 573.47127,585.693095 575.252848,587.474672 L581.094765,593.31659 L572.394037,602.017318 L566.55212,596.1754 C564.770542,594.393823 562.719657,593.503034 560.399462,593.503034 C558.079268,593.503034 556.049098,594.373107 554.308953,596.113252 C552.568807,597.853398 551.688376,599.893926 551.66766,602.234836 C551.646944,604.575746 552.527375,606.63699 554.308953,608.418568 L560.15087,614.260485 L540.63638,633.774975 C538.813371,635.597984 537.912224,637.59708 537.93294,639.772262 C537.953656,641.947444 538.875519,643.94654 540.698528,645.76955 L572.394037,677.465059 L575.419074,680.490949 L240.852074,1017.93295 L503.5,503.5 L640,449 L831,241.411949 C878.782078,263.628877 920.139819,292.044136 955.073223,326.657726 C990.006627,361.271316 1018.48424,402.052074 1040.50607,449 L831,640 L775.069885,774.883352 L262.205074,1037.97195 L599.326074,704.396949 L633.73417,738.805191 Z M641.813417,568.146627 L711.357093,637.690302 C712.72435,639.05756 712.703634,640.445533 711.294945,641.854222 L641.813417,711.33575 C640.404728,712.744439 639.016754,712.765155 637.649497,711.397898 L615.070074,688.818949 L626.316074,677.691949 L635.287871,686.662971 C638.31241,689.68751 641.357665,689.666794 644.423635,686.600823 L686.684314,644.340144 C689.708853,641.315606 689.708853,638.291067 686.684314,635.266528 L644.299339,592.881553 C641.2748,589.857015 638.250262,589.857015 635.225723,592.881553 L592.965044,635.142232 C589.899073,638.208203 589.878357,641.253458 592.902896,644.277996 L602.152074,653.527949 L591.014074,664.761949 L568.105821,641.854222 C566.738564,640.486965 566.75928,639.098992 568.16797,637.690302 L637.649497,568.208775 C639.058186,566.800085 640.44616,566.779369 641.813417,568.146627 Z" id="path-2"></path>
    </defs>
    <g id="icon" stroke="none" stroke-width="1" fill="none" fill-rule="evenodd">
        <g id="AppIconLogo">
            <use fill="#FFFFFF" xlink:href="#path-2"></use>
            <use fill="url(#linearGradient-1)" xlink:href="#path-2"></use>
        </g>
    </g>
</svg>